<mxfile host="app.diagrams.net" agent="Mozilla/5.0 (Windows NT 10.0; Win64; x64) AppleWebKit/537.36 (KHTML, like Gecko) Chrome/127.0.0.0 Safari/537.36" version="24.8.3">
  <diagram id="prtHgNgQTEPvFCAcTncT" name="Page-1">
    <mxGraphModel dx="662" dy="417" grid="1" gridSize="10" guides="1" tooltips="1" connect="1" arrows="1" fold="1" page="1" pageScale="1" pageWidth="827" pageHeight="1169" math="0" shadow="0">
      <root>
        <mxCell id="0" />
        <mxCell id="1" parent="0" />
        <mxCell id="awXPnkkoT9t3LToRfVZ1-72" value="" style="rounded=0;whiteSpace=wrap;html=1;fillColor=#d5e8d4;dashed=1;strokeColor=#82b366;glass=0;opacity=30;" vertex="1" parent="1">
          <mxGeometry x="110" y="240" width="480" height="260" as="geometry" />
        </mxCell>
        <mxCell id="dNxyNK7c78bLwvsdeMH5-19" value="Pool" style="swimlane;html=1;childLayout=stackLayout;resizeParent=1;resizeParentMax=0;horizontal=0;startSize=20;horizontalStack=0;fillColor=none;" parent="1" vertex="1">
          <mxGeometry x="120" y="120" width="450" height="360" as="geometry" />
        </mxCell>
        <mxCell id="dNxyNK7c78bLwvsdeMH5-20" value="Lane 1" style="swimlane;html=1;startSize=20;horizontal=0;fillColor=#f8cecc;strokeColor=#b85450;gradientColor=none;align=center;" parent="dNxyNK7c78bLwvsdeMH5-19" vertex="1">
          <mxGeometry x="20" width="430" height="120" as="geometry" />
        </mxCell>
        <mxCell id="dNxyNK7c78bLwvsdeMH5-25" value="" style="edgeStyle=orthogonalEdgeStyle;rounded=0;orthogonalLoop=1;jettySize=auto;html=1;" parent="dNxyNK7c78bLwvsdeMH5-20" source="dNxyNK7c78bLwvsdeMH5-23" target="dNxyNK7c78bLwvsdeMH5-24" edge="1">
          <mxGeometry relative="1" as="geometry" />
        </mxCell>
        <mxCell id="dNxyNK7c78bLwvsdeMH5-23" value="&lt;font style=&quot;font-size: 8px;&quot;&gt;Caller&lt;/font&gt;" style="ellipse;whiteSpace=wrap;html=1;fillColor=#dae8fc;strokeColor=#6c8ebf;" parent="dNxyNK7c78bLwvsdeMH5-20" vertex="1">
          <mxGeometry x="40" y="40" width="40" height="40" as="geometry" />
        </mxCell>
        <mxCell id="awXPnkkoT9t3LToRfVZ1-20" style="edgeStyle=orthogonalEdgeStyle;rounded=0;orthogonalLoop=1;jettySize=auto;html=1;entryX=0.5;entryY=0;entryDx=0;entryDy=0;" edge="1" parent="dNxyNK7c78bLwvsdeMH5-20" source="dNxyNK7c78bLwvsdeMH5-24" target="awXPnkkoT9t3LToRfVZ1-13">
          <mxGeometry relative="1" as="geometry" />
        </mxCell>
        <mxCell id="dNxyNK7c78bLwvsdeMH5-24" value="&lt;font style=&quot;font-size: 8px;&quot; face=&quot;Times New Roman&quot;&gt;Conversation Recorded &amp;amp; Paired&lt;/font&gt;" style="rounded=0;whiteSpace=wrap;html=1;fontFamily=Helvetica;fontSize=12;fontColor=#000000;align=center;" parent="dNxyNK7c78bLwvsdeMH5-20" vertex="1">
          <mxGeometry x="140" y="20" width="90.5" height="40" as="geometry" />
        </mxCell>
        <mxCell id="awXPnkkoT9t3LToRfVZ1-1" style="edgeStyle=orthogonalEdgeStyle;rounded=0;orthogonalLoop=1;jettySize=auto;html=1;entryX=1;entryY=0.5;entryDx=0;entryDy=0;" edge="1" parent="dNxyNK7c78bLwvsdeMH5-20" source="dNxyNK7c78bLwvsdeMH5-32" target="dNxyNK7c78bLwvsdeMH5-24">
          <mxGeometry relative="1" as="geometry" />
        </mxCell>
        <mxCell id="dNxyNK7c78bLwvsdeMH5-32" value="&lt;font style=&quot;font-size: 8px;&quot;&gt;Agent&lt;/font&gt;" style="ellipse;whiteSpace=wrap;html=1;fillColor=#d5e8d4;strokeColor=#82b366;" parent="dNxyNK7c78bLwvsdeMH5-20" vertex="1">
          <mxGeometry x="280" y="40" width="40" height="40" as="geometry" />
        </mxCell>
        <mxCell id="awXPnkkoT9t3LToRfVZ1-13" value="&lt;font face=&quot;Times New Roman&quot; style=&quot;font-size: 8px;&quot;&gt;Data Annotation &amp;amp; labeling with Scriber&lt;/font&gt;" style="rounded=0;whiteSpace=wrap;html=1;" vertex="1" parent="dNxyNK7c78bLwvsdeMH5-20">
          <mxGeometry x="140" y="70" width="92.5" height="40" as="geometry" />
        </mxCell>
        <mxCell id="dNxyNK7c78bLwvsdeMH5-21" value="Lane 2" style="swimlane;html=1;startSize=20;horizontal=0;fillColor=#d5e8d4;strokeColor=#82b366;" parent="dNxyNK7c78bLwvsdeMH5-19" vertex="1">
          <mxGeometry x="20" y="120" width="430" height="120" as="geometry" />
        </mxCell>
        <mxCell id="awXPnkkoT9t3LToRfVZ1-3" value="&lt;font style=&quot;font-size: 8px;&quot; face=&quot;Times New Roman&quot;&gt;Intent Lable&lt;/font&gt;" style="rounded=0;whiteSpace=wrap;html=1;flipH=1;flipV=1;" vertex="1" parent="dNxyNK7c78bLwvsdeMH5-21">
          <mxGeometry x="25" y="20" width="70" height="40" as="geometry" />
        </mxCell>
        <mxCell id="awXPnkkoT9t3LToRfVZ1-4" value="&lt;font style=&quot;font-size: 8px;&quot; face=&quot;Times New Roman&quot;&gt;Dialog Act Label&lt;/font&gt;" style="rounded=0;whiteSpace=wrap;html=1;" vertex="1" parent="dNxyNK7c78bLwvsdeMH5-21">
          <mxGeometry x="154.25" y="85" width="63.75" height="29" as="geometry" />
        </mxCell>
        <mxCell id="awXPnkkoT9t3LToRfVZ1-5" value="&lt;font style=&quot;font-size: 8px;&quot; face=&quot;Times New Roman&quot;&gt;Sentiment label&lt;/font&gt;" style="rounded=0;whiteSpace=wrap;html=1;flipH=1;flipV=1;" vertex="1" parent="dNxyNK7c78bLwvsdeMH5-21">
          <mxGeometry x="274" y="20" width="70" height="40" as="geometry" />
        </mxCell>
        <mxCell id="awXPnkkoT9t3LToRfVZ1-24" style="edgeStyle=orthogonalEdgeStyle;rounded=0;orthogonalLoop=1;jettySize=auto;html=1;entryX=1;entryY=0.5;entryDx=0;entryDy=0;jumpSize=4;" edge="1" parent="dNxyNK7c78bLwvsdeMH5-21" source="awXPnkkoT9t3LToRfVZ1-12" target="awXPnkkoT9t3LToRfVZ1-3">
          <mxGeometry relative="1" as="geometry" />
        </mxCell>
        <mxCell id="awXPnkkoT9t3LToRfVZ1-25" style="edgeStyle=orthogonalEdgeStyle;rounded=0;orthogonalLoop=1;jettySize=auto;html=1;entryX=0;entryY=0.5;entryDx=0;entryDy=0;" edge="1" parent="dNxyNK7c78bLwvsdeMH5-21" source="awXPnkkoT9t3LToRfVZ1-12" target="awXPnkkoT9t3LToRfVZ1-5">
          <mxGeometry relative="1" as="geometry" />
        </mxCell>
        <mxCell id="awXPnkkoT9t3LToRfVZ1-30" style="edgeStyle=orthogonalEdgeStyle;rounded=0;orthogonalLoop=1;jettySize=auto;html=1;entryX=0.5;entryY=0;entryDx=0;entryDy=0;" edge="1" parent="dNxyNK7c78bLwvsdeMH5-21" source="awXPnkkoT9t3LToRfVZ1-12" target="awXPnkkoT9t3LToRfVZ1-4">
          <mxGeometry relative="1" as="geometry" />
        </mxCell>
        <mxCell id="awXPnkkoT9t3LToRfVZ1-12" value="&lt;p style=&quot;&quot;&gt;&lt;font face=&quot;Times New Roman&quot; style=&quot;font-size: 8px;&quot;&gt;Data Converted to Metadata &amp;amp; Transcript&lt;/font&gt;&lt;/p&gt;" style="shape=hexagon;perimeter=hexagonPerimeter2;whiteSpace=wrap;html=1;fixedSize=1;align=center;size=20;" vertex="1" parent="dNxyNK7c78bLwvsdeMH5-21">
          <mxGeometry x="136.25" y="20" width="100" height="40" as="geometry" />
        </mxCell>
        <mxCell id="awXPnkkoT9t3LToRfVZ1-29" style="edgeStyle=orthogonalEdgeStyle;rounded=0;orthogonalLoop=1;jettySize=auto;html=1;" edge="1" parent="dNxyNK7c78bLwvsdeMH5-19" source="awXPnkkoT9t3LToRfVZ1-13" target="awXPnkkoT9t3LToRfVZ1-12">
          <mxGeometry relative="1" as="geometry" />
        </mxCell>
        <mxCell id="dNxyNK7c78bLwvsdeMH5-22" value="Lane 3" style="swimlane;html=1;startSize=20;horizontal=0;fillColor=#fff2cc;strokeColor=#d6b656;" parent="dNxyNK7c78bLwvsdeMH5-19" vertex="1">
          <mxGeometry x="20" y="240" width="430" height="120" as="geometry" />
        </mxCell>
        <mxCell id="awXPnkkoT9t3LToRfVZ1-31" value="FCR" style="rounded=0;whiteSpace=wrap;html=1;" vertex="1" parent="dNxyNK7c78bLwvsdeMH5-22">
          <mxGeometry x="274" y="10" width="46" height="30" as="geometry" />
        </mxCell>
        <mxCell id="awXPnkkoT9t3LToRfVZ1-54" value="CHURN" style="rounded=0;whiteSpace=wrap;html=1;" vertex="1" parent="dNxyNK7c78bLwvsdeMH5-22">
          <mxGeometry x="340" y="70" width="56" height="30" as="geometry" />
        </mxCell>
        <mxCell id="awXPnkkoT9t3LToRfVZ1-53" value="CSAT" style="rounded=0;whiteSpace=wrap;html=1;" vertex="1" parent="dNxyNK7c78bLwvsdeMH5-22">
          <mxGeometry x="310" y="40" width="40" height="30" as="geometry" />
        </mxCell>
        <mxCell id="awXPnkkoT9t3LToRfVZ1-65" style="edgeStyle=orthogonalEdgeStyle;rounded=0;orthogonalLoop=1;jettySize=auto;html=1;exitX=1;exitY=0.5;exitDx=0;exitDy=0;entryX=0;entryY=0.5;entryDx=0;entryDy=0;" edge="1" parent="dNxyNK7c78bLwvsdeMH5-22" source="awXPnkkoT9t3LToRfVZ1-60" target="awXPnkkoT9t3LToRfVZ1-53">
          <mxGeometry relative="1" as="geometry" />
        </mxCell>
        <mxCell id="awXPnkkoT9t3LToRfVZ1-60" value="&lt;p style=&quot;&quot;&gt;&lt;font face=&quot;Times New Roman&quot;&gt;&lt;span style=&quot;font-size: 8px;&quot;&gt;Interpreting KPI label&lt;/span&gt;&lt;/font&gt;&lt;/p&gt;" style="shape=hexagon;perimeter=hexagonPerimeter2;whiteSpace=wrap;html=1;fixedSize=1;align=center;size=20;" vertex="1" parent="dNxyNK7c78bLwvsdeMH5-22">
          <mxGeometry x="100" y="40" width="130" height="60" as="geometry" />
        </mxCell>
        <mxCell id="awXPnkkoT9t3LToRfVZ1-57" style="edgeStyle=orthogonalEdgeStyle;rounded=0;orthogonalLoop=1;jettySize=auto;html=1;entryX=0;entryY=0.5;entryDx=0;entryDy=0;exitX=0.5;exitY=1;exitDx=0;exitDy=0;" edge="1" parent="dNxyNK7c78bLwvsdeMH5-19" source="awXPnkkoT9t3LToRfVZ1-3" target="awXPnkkoT9t3LToRfVZ1-60">
          <mxGeometry relative="1" as="geometry">
            <mxPoint x="59.500000000000114" y="190" as="sourcePoint" />
            <mxPoint x="89.49999999999989" y="310" as="targetPoint" />
            <Array as="points">
              <mxPoint x="80" y="310" />
            </Array>
          </mxGeometry>
        </mxCell>
        <mxCell id="awXPnkkoT9t3LToRfVZ1-67" style="edgeStyle=orthogonalEdgeStyle;rounded=0;orthogonalLoop=1;jettySize=auto;html=1;entryX=0.5;entryY=0;entryDx=0;entryDy=0;" edge="1" parent="dNxyNK7c78bLwvsdeMH5-19" source="awXPnkkoT9t3LToRfVZ1-4" target="awXPnkkoT9t3LToRfVZ1-60">
          <mxGeometry relative="1" as="geometry" />
        </mxCell>
        <mxCell id="awXPnkkoT9t3LToRfVZ1-68" style="edgeStyle=orthogonalEdgeStyle;rounded=0;orthogonalLoop=1;jettySize=auto;html=1;entryX=1;entryY=0.25;entryDx=0;entryDy=0;" edge="1" parent="dNxyNK7c78bLwvsdeMH5-19" source="awXPnkkoT9t3LToRfVZ1-5" target="awXPnkkoT9t3LToRfVZ1-60">
          <mxGeometry relative="1" as="geometry">
            <Array as="points">
              <mxPoint x="329" y="200" />
              <mxPoint x="260" y="200" />
              <mxPoint x="260" y="297" />
            </Array>
          </mxGeometry>
        </mxCell>
      </root>
    </mxGraphModel>
  </diagram>
</mxfile>
